<svg xmlns="http://www.w3.org/2000/svg" viewBox="0 0 709.505 176.329" width="295.627" height="73.47" aria-label="Slack" class="c-slacklogo--color svg-replaced" shape-rendering="geometricPrecision"><path d="M222.91 139.435l8.629-20.169c9.448 6.997 21.771 10.7 34.097 10.7 9.039 0 14.79-3.497 14.79-8.847-.206-14.818-54.435-3.293-54.847-40.55-.207-18.934 16.64-33.547 40.47-33.547 14.17 0 28.347 3.5 38.41 11.528l-8.062 20.6c-9.26-5.955-20.697-10.106-31.582-10.106-7.395 0-12.327 3.497-12.327 8.028.206 14.613 54.85 6.585 55.466 42.194 0 19.347-16.436 32.932-39.855 32.932-17.252 0-33.07-4.116-45.193-12.763m343.6-27.472a25.036 25.036 0 0 1-21.817 12.756c-13.84 0-25.059-11.242-25.059-25.109s11.219-25.11 25.06-25.11a25.036 25.036 0 0 1 21.815 12.757l23.99-13.316c-8.985-16.06-26.126-26.919-45.806-26.919-28.986 0-52.484 23.543-52.484 52.588 0 29.042 23.498 52.588 52.484 52.588 19.68 0 36.82-10.86 45.806-26.919zM323.52 150.138h29.991V3.247h-29.988zM605.641 3.247v146.891h29.991V106.13l35.539 44.008h38.334l-45.193-52.28 41.905-48.785h-36.69l-33.895 40.559V3.247zM445.91 49.079v11.94c-4.93-8.234-17.05-13.997-29.786-13.997-26.293 0-47.04 23.26-47.04 52.485 0 29.225 20.747 52.69 47.04 52.69 12.736 0 24.856-5.762 29.785-13.996v11.937h29.991V49.078zm0 63.087c-4.314 7.203-13.352 12.55-23.416 12.55-13.844 0-25.063-11.239-25.063-25.106s11.22-25.11 25.063-25.11c10.064 0 19.102 5.557 23.415 12.963z"/><path d="M64.525 0c-9.719 0-17.597 7.896-17.597 17.632a17.615 17.615 0 0 0 17.597 17.633h17.6V17.632A17.618 17.618 0 0 0 64.525 0m0 47.02H17.597C7.877 47.02 0 54.914 0 64.654c0 9.737 7.878 17.632 17.597 17.632h46.931c9.716 0 17.597-7.895 17.597-17.632 0-9.74-7.88-17.636-17.6-17.636" fill="#36c5f0"/><path d="M175.981 64.655c0-9.74-7.88-17.636-17.6-17.636-9.719 0-17.597 7.896-17.597 17.636v17.632h17.597a17.618 17.618 0 0 0 17.6-17.632m-46.928 0V17.632A17.618 17.618 0 0 0 111.453 0c-9.719 0-17.597 7.896-17.597 17.632v47.02c0 9.742 7.878 17.638 17.597 17.638a17.618 17.618 0 0 0 17.6-17.632" fill="#2eb67d"/><path d="M111.453 176.329a17.618 17.618 0 0 0 17.6-17.632 17.618 17.618 0 0 0-17.6-17.633H93.856v17.633c0 9.736 7.878 17.632 17.597 17.632m0-47.02h46.931c9.717 0 17.597-7.895 17.597-17.635a17.618 17.618 0 0 0-17.6-17.632h-46.928c-9.719 0-17.597 7.895-17.597 17.632a17.615 17.615 0 0 0 17.597 17.633" fill="#ecb22e"/><path d="M0 111.674a17.615 17.615 0 0 0 17.597 17.633 17.618 17.618 0 0 0 17.6-17.633V94.042h-17.6C7.877 94.042 0 101.937 0 111.674m46.928 0v47.02c0 9.74 7.878 17.635 17.597 17.635a17.618 17.618 0 0 0 17.6-17.632v-47.023a17.615 17.615 0 0 0-17.6-17.632c-9.719 0-17.597 7.895-17.597 17.632" fill="#e01e5a"/></svg>